{"title":"Swamp Shark (2011) DVDRip AC3 5.1 NLSubs","uid":6357617,"size":1470623866,"categoryP":"video","categoryS":"movies","magnet":"?xt=urn:btih:9c42ecf6810cc8043c7fd0886a4cdda5c2252bf9&amp;dn=Swamp+Shark+%282011%29+DVDRip+AC3+5.1+NLSubs&amp;tr=udp%3A%2F%2Ftracker.openbittorrent.com%3A80&amp;tr=udp%3A%2F%2Fopen.demonii.com%3A1337&amp;tr=udp%3A%2F%2Ftracker.coppersurfer.tk%3A6969&amp;tr=udp%3A%2F%2Fexodus.desync.com%3A6969","seeders":1,"leechers":0,"uploader":"NLUPPER002","files":-1,"time":1304198946,"description":"Swamp Shark (2011) DVDRip AC3 5.1 NLSubs\n.\n[IMG]http://img860.imageshack.us/img860/3324/68636.jpg[/IMG]\n.\nVerenigde Staten\nScience-Fiction\n.\ngeregisseerd door Griff Furst\nmet Kristy Swanson, Robert Davi en D.B. Sweeney\n.\nDe film speelt zich af in de mooie moerassen van Atchafalaya Basin tijdens de zomer. Veel mooie tieners liggen in het weekend aan het strand voor het 'Gator Fest' begint. Die nacht loopt een dierensmokkel gruwelijk uit de hand en ontsnapt er een groot zeedier de afgelegen riviertjes in. Bij het restaurant van McDaniel wordt de lokale dronkenlap Jackson doodgebeten teruggevonden. De sheriff beschuldigt de ontsnapte alligators van McDaniel ervan en probeert hem in de gevangenis te krijgen. Rachel McDaniel, het hoofd van de familie, beweert echter dat zij de vin van een haai boven het water heeft zien uitkomen. Samen met de hulp van haar familie en de mysterieuze vreemdeling Charlie besluit ze het wezen een bezoekje te brengen om de naam van haar familie te zuiveren en het 'Gator Fest' toch te kunnen laten doorgaan.\n. &lt;a href=&quot;\nhttp://www.moviemeter.nl/film/68636&quot; rel=&quot;nofollow&quot; target=&quot;_NEW&quot;&gt;\nhttp://www.moviemeter.nl/film/68636&lt;/a&gt;\n.\nPLOT\n.\nOpen on gorgeous swamplands of the Atchafalaya Basin in the summer. Lots of beautiful teens are at the beach the weekend before Gator Fest...\n.\nINFO\n.\nSource: Swamp Shark (2011) PAL Retail NL Subs DMT \nID                               : 0\nFormat                           : MPEG-4 Visual\nFormat profile                   : Advanced Simple@L5\nFormat settings, BVOP            : Yes\nFormat settings, QPel            : No\nFormat settings, GMC             : No warppoints\nFormat settings, Matrix          : Default (H.263)\nMuxing mode                      : Packed bitstream\nCodec ID                         : DX50\nCodec ID/Hint                    : DivX 5\nDuration                         : 1h 25mn\nBit rate                         : 1 840 Kbps\nWidth                            : 704 pixels\nHeight                           : 396 pixels\nDisplay aspect ratio             : 16:9\nFrame rate                       : 25.000 fps\nColor space                      : YUV\nChroma subsampling               : 4:2:0\nBit depth                        : 8 bits\nScan type                        : Progressive\nBits/(Pixel*Frame)               : 0.264\nStream size                      : 1.10 GiB (80%)\nWriting library                  : XviD 1.2.1 (UTC 2008-12-04)\n\nAudio\nID                               : 1\nFormat                           : AC-3\nFormat/Info                      : Audio Coding 3\nMode extension                   : CM (complete main)\nCodec ID                         : 2000\nDuration                         : 1h 25mn\nBit rate mode                    : Constant\nBit rate                         : 448 Kbps\nChannel(s)                       : 6 channels\nChannel positions                : Front: L C R, Side: L R, LFE\nSampling rate                    : 48.0 KHz\nBit depth                        : 16 bits\nStream size                      : 273 MiB (19%)\nAlignment                        : Aligned on interleaves\nInterleave, duration             : 32 ms (0.80 video frame)\nInterleave, preload duration     : 32 ms\n\nSubs: Dutch (SRT file)\n.\nENJOY\n","torrent":{"xt":"urn:btih:9c42ecf6810cc8043c7fd0886a4cdda5c2252bf9","amp;dn":"Swamp+Shark+%282011%29+DVDRip+AC3+5.1+NLSubs","amp;tr":["udp%3A%2F%2Ftracker.openbittorrent.com%3A80","udp%3A%2F%2Fopen.demonii.com%3A1337","udp%3A%2F%2Ftracker.coppersurfer.tk%3A6969","udp%3A%2F%2Fexodus.desync.com%3A6969"],"infoHash":"9c42ecf6810cc8043c7fd0886a4cdda5c2252bf9","infoHashBuffer":{"type":"Buffer","data":[156,66,236,246,129,12,200,4,60,127,208,136,106,76,221,165,194,37,43,249]},"announce":[],"urlList":[]}}